<?xml version="1.0" encoding="UTF-8" standalone="no"?><!DOCTYPE svg PUBLIC "-//W3C//DTD SVG 1.1//EN" "http://www.w3.org/Graphics/SVG/1.1/DTD/svg11.dtd"><svg width="100%" height="100%" viewBox="0 0 134 134" version="1.1" xmlns="http://www.w3.org/2000/svg" xmlns:xlink="http://www.w3.org/1999/xlink" xml:space="preserve" xmlns:serif="http://www.serif.com/" style="fill-rule:evenodd;clip-rule:evenodd;stroke-linejoin:round;stroke-miterlimit:2;"><path d="M112.574,0c5.505,-0 10.786,2.187 14.679,6.08c3.893,3.894 6.08,9.174 6.08,14.68l0,91.735c0,5.527 -2.195,10.827 -6.103,14.735c-3.908,3.908 -9.208,6.103 -14.735,6.103l-91.473,0c-11.61,0 -21.022,-9.411 -21.022,-21.021l-0,-91.577c-0,-5.499 2.185,-10.773 6.073,-14.662c3.889,-3.888 9.163,-6.073 14.662,-6.073l91.839,0Z" style="fill:#a30404;"/><path d="M112.574,0c5.505,-0 10.786,2.187 14.679,6.08c3.893,3.894 6.08,9.174 6.08,14.68l0,91.735c0,5.527 -2.195,10.827 -6.103,14.735c-3.908,3.908 -9.208,6.103 -14.735,6.103l-91.473,0c-11.61,0 -21.022,-9.411 -21.022,-21.021l-0,-91.577c-0,-5.499 2.185,-10.773 6.073,-14.662c3.889,-3.888 9.163,-6.073 14.662,-6.073l91.839,0Zm-0,0.934l-91.839,0c-5.251,0 -10.288,2.086 -14.001,5.8c-3.714,3.713 -5.8,8.75 -5.8,14.001l0,91.577c0,11.094 8.994,20.087 20.088,20.087l91.473,0c5.279,0 10.342,-2.097 14.075,-5.829c3.732,-3.733 5.829,-8.796 5.829,-14.075l0,-91.735c0,-5.258 -2.089,-10.301 -5.807,-14.019c-3.718,-3.718 -8.76,-5.807 -14.018,-5.807Z" style="fill:#a30404;"/><g transform="matrix(192.122,0,0,192.122,120.701,116.479)"></g><text x="13.852px" y="116.479px" style="font-family:'ArialMT', 'Arial', sans-serif;font-size:192.122px;fill:#fcdd08;">a</text></svg>