<?xml version="1.0" encoding="UTF-8" standalone="no"?><!DOCTYPE svg PUBLIC "-//W3C//DTD SVG 1.1//EN" "http://www.w3.org/Graphics/SVG/1.1/DTD/svg11.dtd">
<svg
  width="100%"
  height="100%"
  viewBox="0 0 2290 3128"
  version="1.1"
  xmlns="http://www.w3.org/2000/svg"
  xmlns:xlink="http://www.w3.org/1999/xlink"
  xml:space="preserve"
  xmlns:serif="http://www.serif.com/"
  style="
    fill-rule: evenodd;
    clip-rule: evenodd;
    stroke-linecap: round;
    stroke-linejoin: round;
  "
>
  <path
    id="path5966"
    d="M1104.25,1.296l-23.057,2.776l-5.096,3.173l0.606,1.587l-9.465,9.387l-6.068,3.569l-3.397,0.263l-4.49,3.437l-0.971,7.536l0.971,4.098l4.247,1.058l-1.942,3.437l-0.121,6.346l1.213,1.587l-4.004,4.495l1.092,3.173l-1.942,1.983l-4.611,0.398l-8.009,5.685l-3.155,8.726l-12.014,6.081l-0.364,13.75l2.063,4.495l-0.121,5.42l2.548,16.262l-6.917,5.42l0.364,3.702l7.767,6.479l1.82,6.346l-9.223,17.451l-2.427,-0.398l-0.607,2.116l-1.092,3.834l-6.674,4.363l-12.257,-3.702l-4.247,-0l-1.82,1.851l-2.792,0.397l-0.485,7.8l1.335,5.95l-1.214,4.231l-16.989,-1.322l-1.456,5.288l-4.247,3.305l-1.335,-0.529l-3.034,1.851l0.243,4.495l-2.185,4.76l-4.489,3.305l-1.578,7.932l-1.942,2.644l-5.46,-1.057l-2.306,0.925l-8.131,8.065l-7.766,-0.926l-3.641,2.38l-3.277,-0.397l-10.436,2.776l-11.892,-2.38l-8.616,2.248l-1.699,3.569l0.849,1.719l-7.888,3.305l1.821,10.048l3.397,6.214l-5.582,11.501l0.122,6.611l2.063,6.214l-1.093,-0.132l-0.242,3.438l-11.407,5.949l-4.126,0.661l-8.495,0.263l-13.956,-4.892l-12.256,0.262l-13.349,1.058l-18.203,-3.173l-6.674,0.661l-1.699,6.081l0.243,9.255l-2.548,22.343l-2.913,-3.305l-7.402,-3.438l-2.306,0.662l-1.942,1.718l-1.82,-0.397l-1.092,7.403l3.762,1.851l4.49,0.926l8.737,5.684l-2.67,3.57l-5.824,-1.322l-14.199,10.709l-8.13,8.065l-3.155,0.529l-1.821,7.8l0.243,12.295l2.427,6.082l-1.456,2.908l-3.034,-1.322l-0.971,1.322l-8.13,0.529l-6.068,7.007l-4.732,-1.19l-6.311,-5.288l-2.305,0.131l-9.951,-4.627l-0.607,-2.248l-6.068,-1.586l-18.081,34.506l-0.85,8.065l-3.398,3.966l4.733,2.512l0.607,10.18l3.398,-0.398l5.582,3.173l-0.364,5.421l2.184,8.197l-7.038,14.939l0.364,3.173l-6.553,7.272l-19.78,8.197l-20.387,25.78l-1.093,15.997l-4.004,7.272l-1.578,8.329l-5.461,11.502l-2.063,3.173l2.185,3.966l4.975,4.363l6.796,-2.909l4.369,0.926l1.82,7.139l3.155,3.834l-2.184,2.116l2.791,3.833l-6.553,9.916l-4.49,3.173l-7.039,3.041l-5.096,6.081l-12.621,18.113l-6.674,12.163l-10.922,11.237l-0.971,1.323l0.85,2.379l6.189,10.577l-1.093,6.478l-3.155,2.776l0.364,5.818l-3.762,7.403l0,11.106l-12.863,23.797l-0.849,10.445l3.155,9.651l14.077,11.767l2.669,11.237l-1.82,6.61l0.121,7.272l-3.397,9.651l3.276,1.454l1.092,5.421l-4.247,14.014l-1.335,7.271l0.849,2.512l24.999,19.567l1.335,14.543l4.368,6.61l5.461,13.221l4.612,1.983l13.348,-1.983l14.441,0.793l-1.699,7.404l3.641,3.041l-0.121,3.173l3.883,7.139l-3.762,5.42l2.548,3.57l0,0.132l-18.202,15.203l-8.738,10.048l-1.213,5.685l-10.194,13.485l-8.616,15.336l-7.038,22.343l-4.369,2.512l-4.733,2.644l4.612,6.611l-0,0.131l-1.699,7.007l-11.407,4.627l-5.097,3.835l0.971,1.322l-3.762,6.081l-0.121,3.702l-2.67,5.288l-3.883,1.984l-1.942,3.437l-2.791,0.529l-11.164,-1.454l-3.519,-1.984l-9.708,0.661l-16.019,-8.99l-21.6,0.398l-3.398,8.461l-5.34,1.058l-8.009,5.024l-27.304,-3.966l-16.868,-7.271l-12.499,-6.214l-9.951,-17.981l-6.067,-6.742l-21.116,-7.668l-7.887,-6.478l-4.248,3.173l1.092,1.983l-4.126,0.398l-0.728,-2.512l-8.98,-4.099l-0.728,3.702l-4.126,5.553l0.607,1.322l-3.64,2.644l-5.461,-2.38l-5.825,1.852l-2.913,-3.306l-8.373,0.263l-9.708,-4.892l-5.097,-2.115l-4.247,-4.495l-20.994,-27.896l-5.582,0.262l-8.859,4.76l-5.339,1.057l-4.975,-2.908l-8.981,-5.553l-11.649,2.512l-6.553,0.528l-5.219,-9.254l-5.218,-3.834l0.122,5.553l-3.398,4.495l5.703,10.841l-16.382,9.915l6.674,11.37l1.335,7.404l-1.335,13.353l1.214,9.386l-2.791,4.231l0.97,23.401l14.441,20.757l-0.971,11.766l0,2.248l6.068,12.163l7.402,-2.115l1.821,3.04l0.243,0.661l1.82,8.462l-2.185,2.776l-0.242,3.702l1.699,17.319l-5.34,11.105l-6.553,4.364l-7.645,8.857l-7.16,16.658l0.364,1.058l10.072,1.455l11.043,8.857l0.243,4.76l3.034,7.668l14.319,15.204l-5.097,14.675l8.738,4.098l7.887,-1.454l2.67,5.685l6.917,3.834l-7.402,7.932l-2.549,14.411l1.093,3.438l-5.461,1.718l-0.728,-1.322l-5.34,2.776l-8.009,9.916l2.306,1.851l2.184,20.757l-5.339,3.702l-12.5,-2.116l0,0.132l-4.247,1.983l-18.931,-0.926l-11.649,23.93l-3.762,-3.173l-14.805,8.858l-1.82,6.081l-5.825,5.289l-0.122,-0l-4.368,4.892l-0.486,7.668l-3.276,2.247l-3.641,8.329l-27.061,-6.61l-8.859,-0.793l-5.218,2.776l-6.553,-4.231l-6.795,7.007l0.97,9.916l-2.305,8.858l0.97,4.627l10.194,12.56l-0.971,2.776l4.005,4.628l2.427,-0.529l3.762,7.271l-1.335,2.115l2.427,2.644l-4.49,12.163l0.849,1.322l-4.732,6.214l2.427,10.841l-2.913,12.164l1.578,7.403l-3.398,10.445l8.616,5.156l12.984,19.17l1.335,6.61l-0.728,10.577l2.791,9.916l0.121,6.213l-3.883,5.553l8.859,4.363l4.49,0l-2.67,3.041l0.728,4.23l1.335,1.19l-0.485,4.231l-10.922,-1.058l-0.607,0.925l-0.728,-1.057l-6.796,5.288l-6.31,2.512l-8.737,-1.454l-4.369,6.61l-3.398,0.263l-1.213,-1.587l-0.121,1.719l-6.553,1.719l-5.946,8.064l-5.461,0.926l0.121,1.454l-6.674,-0.262l-3.156,-0.398l-2.184,-2.776l-1.699,0.529l-3.155,-3.041l-3.155,0.397l-0.971,-8.329l6.796,-7.404l-0.607,-22.739l-8.98,-7.668l-1.578,-0.398l0,0.131l-0.485,-0.262l-40.167,-10.973l-1.699,6.214l-2.549,1.454l-0.485,0.263l-3.155,3.833l-3.883,9.387l0.485,16.394l-1.699,12.824l-1.699,1.851l0.728,3.966l0,-0.001l-0.971,0.398l0.971,5.817l2.67,2.248l-3.155,2.379l-4.369,10.181l-4.611,1.322l-14.077,12.691l-4.854,-1.057l-5.461,1.587l0.485,7.667l4.49,10.577l-0.97,5.817l-4.976,3.041l-3.64,6.214l-1.093,3.702l2.427,7.8l-1.334,10.312l-3.034,5.288l-0.607,7.933l7.888,4.892l3.762,18.641l3.034,24.855l4.49,21.947l2.184,34.902l30.702,9.255l20.872,4.363l1.942,7.933l19.902,16.525l3.155,-5.817l7.16,-2.512l23.299,-1.322l16.018,-4.759l3.884,-3.967l16.018,-6.478l2.427,-1.189l8.373,5.817l0.364,5.42l6.675,9.123l-0,5.288l5.218,8.857l8.373,4.364l12.378,0.131l3.762,-1.322l8.009,2.115l8.98,9.783l7.645,15.997l10.436,5.553l15.897,3.306l7.645,4.362l3.034,0.793l3.883,-1.189l1.942,2.379l8.859,3.834l5.097,9.255l4.126,4.231l15.169,9.519l7.038,8.064l3.398,3.57l0.607,2.512l-1.821,0.661l0,3.834l8.374,7.007l1.092,7.536l7.402,2.644l6.068,7.404l4.004,2.776l7.645,9.254l17.839,16.791l9.83,6.346l3.397,5.42l6.553,2.248l4.126,3.569l3.155,8.99l2.306,0.398l14.805,16.526l13.591,9.122l4.854,-3.966l0,0.132l-4.854,3.834l4.369,6.346l3.034,10.048l-1.942,10.973l-4.005,8.858l-8.009,9.519l4.369,19.567l13.106,19.963l5.461,6.081l2.063,0.529l1.213,3.437l2.67,4.892l12.014,13.75l2.184,1.454l5.218,-1.454l5.461,2.776l2.185,2.116l0.363,3.305l6.796,7.403l1.82,5.024l2.427,18.906l-1.335,7.668l1.214,4.231l-2.184,3.834l-0.607,8.858l2.063,4.627l0.243,3.173l-11.893,10.709l-5.218,10.576l2.427,20.757l3.641,3.702l1.213,6.742l-0.485,3.173l7.645,8.726l3.883,8.065l2.184,2.38l-3.64,5.685l0.971,23.665l-10.072,15.203l-2.185,12.957l-7.766,15.865l7.281,7.668l0.364,2.38l7.402,9.783l-3.277,2.116l-4.732,7.271l-21.115,16.79l-3.277,0l-8.98,7.536l-24.027,-14.278l-3.52,-3.834l-24.998,-2.248l-6.189,-10.312l-2.912,1.322l-5.946,11.106l-5.825,2.379l2.791,11.238l-9.466,28.821l4.976,27.235l0.243,17.98l2.063,6.875l-32.159,14.675l-11.407,9.651l-7.524,12.031l-5.46,7.933l-3.398,8.593l-5.218,4.363l-7.039,17.584l-6.189,-4.76l-2.548,0.132l-3.034,3.569l-3.034,10.445l0.486,3.305l-1.942,2.512l13.106,0.793l-0.121,5.421l8.737,-0.131l2.306,4.759l1.092,-0.661l5.218,5.817l2.185,7.139l3.64,2.909l4.854,8.725l0.243,3.042l2.063,-0.263l6.431,8.594l0.85,3.172l3.883,0.529l1.214,2.248l11.043,6.081l10.072,14.411l7.645,5.421l0.364,4.891l-7.524,2.909l-10.315,-4.892l-0.364,5.289l-2.063,1.454l-4.611,8.858l1.82,15.072l5.946,11.37l3.884,0.262l3.276,-3.966l-0.485,-11.503l7.888,-15.203l7.887,-2.644l8.131,8.99l11.043,6.346l4.976,12.295l9.465,8.329l6.068,8.461l5.339,4.231l9.951,11.766l1.335,1.587l7.038,5.95l3.883,-0.263l8.616,6.875l17.353,23.004l2.549,1.322l7.281,7.668l13.349,14.146l7.645,-2.908l6.067,-7.933l1.214,-0.793l4.975,-0.925l0.728,-0.132l2.306,-0.397l28.397,18.905l27.304,-12.163l-2.549,32.127l0.121,7.932l-5.096,12.428l12.135,5.949l2.791,0.131l5.703,-3.041l13.834,3.173l8.495,4.892l6.674,-3.834l6.311,-2.115l4.368,1.718l5.825,0l-0.485,5.95l2.063,3.041l3.519,0.793l16.383,-13.485l-0,0.131l12.741,-4.363l2.427,-3.305l-2.305,-6.611l1.699,-8.064l-4.126,-7.668l-0.243,-13.353l0,-0.132l6.189,-16.658l3.155,-2.644l6.796,-1.851l4.004,-4.231l-0.97,-1.85l4.004,4.891l-2.791,7.8l7.524,17.584l2.063,10.576l6.067,4.76l0,4.627l18.688,19.303l5.461,-3.834l0.85,1.057l-2.306,5.95l0.849,1.586l-2.063,3.57l2.063,7.932l-3.397,3.305l4.368,7.933l6.675,2.776l12.135,-1.983l10.436,5.289l4.733,-0.794l0.121,-0.131l6.432,0.398l21.115,-4.231l4.004,0.925l2.063,-1.454l6.189,0.661l1.942,0.793l2.548,5.421l6.553,4.495l1.699,6.875l8.616,1.851l3.519,2.776l4.612,-0l4.611,4.363l18.081,17.583l3.52,2.513l-1.214,1.057l5.825,7.404l0.364,9.519l-5.704,6.478l-4.004,8.594l-10.679,3.569l-9.223,7.536l-4.733,1.322l-15.775,8.99l-7.767,-1.719l-5.582,4.231l-4.005,0.131l-5.096,2.512l1.213,10.048l12.621,11.767l3.883,16.922l4.126,-0.131l5.218,1.851l1.456,7.403l5.218,2.116l-1.699,-5.289l3.641,-2.247l2.306,-3.966l2.67,-1.058l2.305,4.231l2.185,-1.587l-0.607,-1.322l2.184,-3.173l9.951,7.272l3.519,-2.645l2.427,-1.454l-1.941,-1.322l0.849,-3.173l11.164,-3.437l11.65,-0.661l24.27,5.817l17.718,-7.272l2.669,1.719l5.947,-1.719l11.771,6.082l6.067,1.322l12.621,7.536l2.305,-0.262l3.641,4.494l7.524,3.041l2.305,3.834l5.583,-3.173l3.276,-5.288l3.641,6.611l-1.093,3.04l8.617,11.106l2.669,12.295l-0.606,5.817l-3.277,-1.851l-4.854,10.181l4.854,17.847l-1.577,1.851l5.218,1.455l2.063,5.42l-2.67,3.966l-3.398,1.851l-3.519,13.882l3.762,6.875l9.829,8.99l5.097,4.76l7.16,-0.263l4.126,4.099l3.033,-0.529l2.063,2.115l3.034,-0.661l4.248,-3.173l1.334,-5.024l5.461,-1.454l8.009,-5.553l7.645,-8.593l11.043,-2.644l13.47,-7.801l0,-2.115l-3.033,-1.454l-2.427,-7.536l-6.311,-5.949l-3.276,-0.662l-10.072,-8.329l-2.306,-4.23l-0.121,-6.346l-3.398,-6.214l-2.306,-1.719l3.155,-3.437l-2.547,-13.616l-5.097,-5.95l1.578,-6.478l3.519,-1.322l3.034,-4.76l-2.184,-6.61l-2.306,-2.512l2.67,-3.305l0.121,-4.363l2.427,-2.776l8.131,-3.041l5.703,0.131l10.558,-8.461l3.64,-0.794l7.038,1.454l9.102,-8.593l2.67,-5.95l5.582,-5.949l1.456,-17.055l2.063,-3.437l0.364,-11.238l6.796,-5.42l4.611,8.858l12.863,-4.495l3.762,1.057l0.971,1.851l4.733,0.794l2.305,-1.587l2.063,-1.983l8.01,-4.495l15.533,2.379l2.427,-1.454l12.256,-5.817l14.077,-16.526l3.276,0.131l2.913,-2.115l1.577,2.247l0.122,-4.362l0.728,-0.926l1.092,2.115l2.063,-0.397l-0.364,-2.512l1.699,-1.323l1.456,-1.454l3.155,0.926l-0.121,5.685l3.277,1.322l4.247,-1.719l-11.771,-32.523l15.047,-23.93l2.185,-2.644l1.941,1.587l4.248,-1.851l1.213,-3.57l4.733,-1.719l3.034,2.38l5.339,-5.949l1.335,-0.794l-0.728,-9.783l3.519,-1.058l0.121,-3.966l3.155,-2.776l1.092,-3.834l-1.213,-0.925l0.85,-1.984l-3.398,-11.105l1.941,-1.983l0.85,-5.553l-1.335,-1.19l6.553,-7.271l2.184,-8.858l2.306,-3.438l-0.85,-9.519l8.616,-34.638l2.913,-7.404l11.649,12.428l14.441,7.668l7.039,-1.454l5.461,4.495l6.067,-5.421l7.281,-1.19l5.704,-4.892l4.733,6.346l9.343,-1.454l18.446,-8.593l30.702,-18.113l3.883,-3.305l-1.213,-9.651l1.82,-3.966l-5.825,-9.916l-7.645,-6.214l-0,-1.586l4.854,-1.983l-0.607,-2.777l1.456,1.719l2.184,-1.19l-1.213,-2.644l1.092,-3.173l1.82,-1.719l2.549,1.586l4.247,-4.362l1.942,5.156l3.034,-3.702l0.12,4.628l1.699,-0.263l0.121,-2.38l3.033,1.587l-0.85,-3.305l-2.062,-1.454l1.091,-2.38l3.035,-1.587l1.092,-2.908l3.883,3.702l2.669,-1.852l1.457,1.323l0.728,-4.231l-1.214,-0.398l3.883,-2.644l-0.97,-7.535l1.577,-0.263l0.971,3.173l2.67,-0.262l-0.485,-1.719l2.062,-1.983l-1.577,-5.288l1.942,-5.817l2.306,0.528l0.606,-1.586l3.398,-0.529l0.606,-3.305l8.131,-5.289l1.699,-4.759l3.52,-3.702l2.062,-0.661l2.427,1.322l3.155,-5.024l5.097,0.926l6.917,-6.478l-0,2.776l2.913,-1.19l2.427,1.454l-1.214,-3.569l0.971,-1.587l1.942,0.661l-1.214,-3.966l0.728,-3.437l-3.519,-9.652l-8.252,-9.122l-4.247,-2.247l-4.49,-11.767l-7.403,-8.197l-8.737,-4.627l-3.762,-3.834l-6.553,-12.824l-4.733,-5.817l1.214,-0.926l2.427,1.322l-0.12,-3.173l3.034,-2.38l-0.121,-4.495l1.457,-3.173l3.519,-2.512l7.888,-1.19l10.8,-5.817l11.771,0l-1.577,-4.627l3.883,-0.131l2.427,-1.851l1.214,2.38l1.941,-3.173l1.699,-0.662l0.728,1.455l1.213,-3.041l1.578,-0.398l2.913,2.116l1.092,-4.892l-2.185,-3.173l-4.368,-1.851l0.365,-5.156l3.397,-4.892l0.121,-3.569l-4.854,-8.462l-5.461,-4.362l-7.402,3.834l-1.456,-7.536l-1.821,-2.909l3.398,-15.468l3.398,-5.421l2.306,-7.403l-1.942,-2.777l1.82,-6.61l-2.912,-0.793l1.214,-2.248l-2.792,-4.363l-0.12,-4.098l0.606,-1.719l0.365,-4.098l-3.397,-3.57l-0.365,-3.702l3.519,-3.702l0.728,-3.04l-0.85,-1.984l1.457,-5.552l-1.457,-3.834l1.578,-1.19l-1.092,-3.438l1.941,-4.759l-0.727,-6.742l-4.612,-1.851l-2.548,1.322l-7.038,0.131l-4.733,3.437l-3.52,5.289l-9.465,-3.57l-0.241,-1.058l-6.674,0.926l-0.607,-4.76l-12.62,-4.363l-7.888,1.984l-5.582,-5.421l-1.578,-4.627l0.971,-6.082l1.456,-6.61l3.52,-5.288l-0.607,-6.479l1.577,-3.305l-6.553,-6.081l-1.82,-4.892l2.67,-5.949l3.276,-0.794l1.457,1.058l1.334,-1.851l-1.941,-1.587l2.427,0.53l-0.729,-1.984l11.165,-5.817l21.236,-2.512l2.306,2.248l2.912,0.262l1.578,10.18l2.427,4.231l7.767,4.098l0.606,-4.495l5.582,-3.702l4.247,-6.478l3.156,1.851l8.13,-8.065l13.956,-5.024l8.495,-5.817l10.921,-0.398l-1.092,-6.874l3.034,-10.841l-2.185,-1.058l-2.184,-8.461l1.577,-5.818l3.398,-2.511l0.85,-6.743l1.941,-2.909l-0.97,-2.644l2.791,-5.553l-0.121,-3.966l2.306,-6.61l8.494,-3.967l2.063,-9.386l3.519,-3.702l0.241,-2.38l2.427,-1.454l1.335,-2.512l-0.728,-2.38l5.582,-2.247l-2.063,-2.776l23.542,-1.191l1.457,-3.04l15.897,3.305l-2.063,10.444l2.548,6.611l4.126,2.38l4.247,8.461l5.704,5.156l9.95,4.627l4.248,5.024l4.247,0.661l12.014,4.628l4.733,4.627l12.256,6.346l6.796,0.661l1.699,-1.19l7.767,1.719l10.072,3.569l1.577,-3.702l4.733,-3.966l3.762,-1.058l-0,0.132l25.969,2.776l1.699,2.645l-1.335,2.644l2.063,3.702l3.884,2.115l3.518,4.362l-2.912,5.95l-0.241,5.024l2.063,1.983l-0.365,5.552l8.373,1.72l3.884,2.247l23.663,-23.665l30.945,-12.956l-0.485,2.379l3.64,-0.262l5.582,4.23l13.592,2.38l17.474,-5.156l0.728,-4.231l2.791,-1.718l1.821,-3.437l-2.427,-6.743l-2.427,-0.661l-0.971,-2.38l1.335,-0.793l-4.49,-7.536l4.247,1.983l2.67,3.967l5.703,3.701l0.728,-2.644l-1.82,-5.288l1.82,-2.116l-0.849,-3.966l4.733,1.719l2.184,-2.38l0.728,2.512l4.005,2.909l4.611,-8.462l4.126,1.058l8.13,-10.048l9.223,1.983l4.854,-1.983l-0.485,-3.834l4.004,-5.024l-1.335,-3.305l0.608,-7.668l8.373,-5.157l4.247,-6.61l6.067,-1.718l0.729,-4.363l5.096,-9.387l5.097,-3.305l0.121,-1.719l4.854,-2.248l-9.102,-10.708l0.121,-1.984l-3.883,-3.833l0.607,-1.587l-1.821,-0.398l-1.092,-7.138l-2.548,-0.398l1.699,-1.851l-1.821,-2.512l0.486,-2.248l-3.884,-3.173l1.942,-3.702l-1.335,-2.776l2.063,-3.702l-0.606,-3.966l1.456,-4.363l-2.791,-2.115l-1.092,-2.909l-4.005,-1.057l-4.854,-4.495l1.82,-1.851l3.641,-0.529l-0.121,-5.024l3.277,-3.834l-0.365,-5.685l2.912,-5.024l-2.669,-0.793l-0.85,-3.173l4.126,-1.322l-0.241,-8.065l5.219,-8.99l5.339,-0.529l5.34,-7.668l-2.063,-8.329l3.397,-3.305l0,-3.041l3.884,-0.131l3.397,-9.388l-0.849,-4.362l7.16,-5.95l-3.276,-3.702l-4.612,1.455l-1.699,-2.115l0.971,-7.404l-0.971,-5.024l-6.917,-6.478l-0.241,-2.512l-2.67,-2.38l0.728,-3.57l4.248,-3.437l-0.485,-1.983l-2.913,-2.248l-4.733,-0.925l-4.247,-3.702l1.577,-5.023l2.913,-0.794l8.98,1.587l2.791,-1.719l-6.917,-6.214l-6.553,-0.793l-7.524,-6.346l-5.218,-8.461l-2.063,1.057l-0.849,5.421l-6.31,0.397l-0,-0.131l-3.034,-2.38l-0.241,-2.776l3.64,-6.346l-1.213,-1.19l-5.704,1.058l-4.368,4.495l-1.942,-1.983l-0,-3.041l2.427,-3.173l7.281,-4.231l-1.092,-4.891l-5.097,-0.529l-3.155,-3.702l1.699,-8.594l0,-0.131l-1.699,-3.834l-1.092,-2.512l2.306,-1.454l0.24,-3.834l-3.397,-1.323l-5.946,1.455l-5.34,-1.851l-0.121,-18.245l4.247,-7.007l-0.849,-0.925l2.791,-6.61l-6.189,-7.668l0.241,-2.38l2.063,-1.587l12.378,-4.098l-0.365,-1.983l-5.097,-2.116l0.85,-0.793l17.838,6.875l8.495,0.398l3.034,-3.967l-0.971,-4.363l4.369,-5.552l-1.093,-1.19l0.971,-1.851l-2.305,-3.437l15.533,1.322l14.683,-7.668l8.859,-8.065l-2.184,-2.644l3.398,-5.421l0.849,-13.617l1.699,-1.455l1.213,-7.271l2.185,-2.38l1.698,-10.576l2.306,-3.967l0.85,-10.312l2.791,-4.231l3.519,2.38l3.398,0.262l5.46,-7.8l2.306,-0.661l7.767,4.231l6.796,1.454l3.155,-2.247l0.365,-11.238l12.985,2.247l-1.942,-1.057l-3.641,-7.536l-0.365,-4.495l3.277,-4.495l-0.85,-7.932l3.762,-12.164l3.155,-5.288l-12.499,-17.98l-3.034,-7.537l3.519,-7.667l-1.456,-7.272l-2.184,-2.248l-11.164,-4.495l-2.063,-4.627l8.373,-12.295l5.825,0.131l5.46,-8.726l-10.8,-20.36l-21.479,-15.996l-9.465,-8.726l11.528,-13.618l5.339,-5.684l4.369,-13.75l-0.85,-4.363l1.457,-11.766l5.582,-8.594l-0.607,-2.644l-6.917,-6.478l-0.85,-2.38l0.245,-8.065l-2.67,-10.048l0.485,-3.173l4.126,-3.834l15.169,1.851l3.034,1.322l10.193,-1.19l8.374,-4.098l2.427,-1.454l6.068,-8.99l9.587,-17.716l7.038,-5.949l4.004,-7.668l8.374,-10.181l3.033,-1.189l-6.067,-14.014l-6.796,-9.387l1.942,-3.834l-2.063,-8.99l0.97,-3.57l3.398,-3.569l-1.82,-8.197l-3.883,-9.519l-20.508,9.783l-7.767,-2.644l-33.008,-4.231l-2.912,-22.739l9.466,-9.916l-2.064,-2.644l-5.096,-2.644l-12.378,-23.137l-5.097,-2.644l-0.24,-12.56l1.698,-6.61l4.854,-7.139l5.946,-8.462l7.16,-6.082l9.709,-8.99l3.761,-2.908l0.486,-10.577l2.669,0.793l9.345,-16.79l8.251,8.462l-0.365,-5.95l3.519,-15.072l-0.606,-2.379l-0,-2.776l1.577,1.189l6.311,-2.644l22.935,-2.115l7.524,-3.438l-0,0.131l12.984,1.455l3.762,-2.512l3.277,-21.814l7.281,-14.543l4.611,-3.702l4.733,0.661l2.912,-2.512l2.427,-7.536l6.554,-6.346l3.883,-1.851l3.034,1.454l4.368,-1.586l13.47,2.247l5.34,-6.346l3.155,-8.593l0.244,-5.288l-1.577,-0.398l0.607,-8.858l3.882,-5.024l3.762,2.116l-0.12,-1.322l13.955,2.644l1.699,-6.875l-1.699,-5.818l3.52,-0.262l1.092,-1.718l3.64,0.131l2.549,-2.908l7.281,-1.058l3.033,-3.173l0.729,-6.082l-12.014,-6.214l2.427,-4.627l0.12,-3.834l3.884,-15.997l-4.491,-6.875l-0.24,-2.777l9.829,-1.322l-3.641,-3.04l-20.144,-7.007l-0.971,-1.587l-10.315,-1.983l-0.364,-5.553l2.912,-6.345l8.98,-10.841l0.728,-2.513l6.068,-4.362l0.728,-5.024l4.368,-2.115l9.223,8.329l-0.728,-4.76l4.975,-3.569l4.976,-12.957l2.184,-1.586l-1.699,-4.099l5.34,-4.627l11.407,-2.777l2.791,7.801l-0.121,4.891l2.67,-5.155l-0.85,-5.289l1.821,-4.495l8.251,-4.892l5.218,-13.088l-5.46,-0.398l-4.005,-11.502l3.64,-5.421l0.245,-8.99l7.16,-1.454l4.005,-5.685l-2.064,-1.454l-0.485,-3.305l0.728,-9.255l8.131,-15.072l4.489,-15.865l8.131,-7.536l-0.485,-2.247l3.64,-5.685l2.063,-15.204l-3.276,-4.627l-2.063,-12.428l0.365,-13.617l6.068,-6.478l8.009,-5.024l-9.587,-6.214l-2.305,-3.173l3.639,-12.56l-0.606,-5.156l3.155,-1.058l2.184,-6.213l-0.849,-7.14l4.49,-5.817l-0.607,-5.553l3.156,-4.494l-2.549,-1.984l0.607,-3.041l4.004,-5.684l3.762,-10.973l2.792,-4.628l3.883,-2.908l1.092,-3.57l3.762,-17.187l-0.85,-12.428l4.126,-4.362l0.728,-15.733l9.102,-8.197l-1.214,-4.231l7.402,-9.122l-4.247,-3.57l-3.276,0.926l-4.49,-1.851l-4.247,0.529l-2.549,-10.709l3.398,-0.661l3.64,-5.817l3.277,-0.926l0.486,-2.512l2.669,-0.131l1.092,-1.586l3.156,0.528l3.033,-1.057l3.277,-1.851l-4.005,-2.777l-0.485,-2.776l-3.883,-0.926l-11.165,0.262l-7.281,-5.288l-2.427,0.132l-8.009,-3.834l-0.365,-3.173l2.063,-1.455l6.796,-1.322l0.849,-4.759l5.946,-3.041l2.427,-5.685l-3.398,-7.271l-1.092,0.262l-1.699,-8.065l-1.335,0.398l-8.13,-6.082l1.82,-2.776l4.854,0.132l0.971,-6.346l-1.092,-2.909l-6.311,-10.18l-5.582,-1.983l0,-0.131l-6.917,-7.404l0.365,-2.512l-3.277,-10.709l-0.12,-7.271l1.699,-2.38l-1.942,-5.949l-7.16,-9.519l-4.854,-13.75l5.825,1.322l2.184,-4.759l-1.213,-4.231l0.971,-0.661l3.519,1.455l6.431,7.271l10.194,-10.974l2.427,0.794l2.912,-7.272l4.733,-0.793l-7.402,-7.271l-8.252,-0.398l3.64,-7.272l-1.82,-5.288l2.427,-5.42l8.009,-9.784l8.01,4.892l3.276,0.262l-6.796,-10.18l5.583,-7.271l-0.607,-4.363l8.737,-15.865l-0.607,-4.098l1.7,-4.496l0.849,-14.675l3.761,-8.064l1.335,-8.329l-14.319,-1.587l-4.126,-2.644l-3.155,2.909l-2.67,-0.398l-3.519,-2.776l-1.214,0.793l-5.46,-1.587l-4.49,-3.305l-7.039,-1.586l-7.767,-8.197l1.093,-3.57l-3.641,-26.177l-2.548,-0.793l-3.762,-4.892l-5.097,-2.116l-0.485,-2.511l-3.034,-2.38l-1.942,-8.065l-1.577,-2.115l-4.248,-1.587l-4.489,-5.817l-0,-2.644l-6.796,-1.322l-2.548,-1.983l-5.097,1.851l-10.679,-3.041l-0,0.132l-8.98,-0.398l-9.951,-4.76l-4.854,-5.024l-4.855,2.777l-1.456,6.742l-0.12,0.662l-5.704,-0.263l-0.971,-0.131l-0.12,0.131l-2.063,1.983l-3.398,-1.718l-5.825,-2.909l-15.412,-3.437l-8.13,1.057l-7.524,-1.586l-3.641,4.23l-1.213,5.289l0,0.262l-1.942,0.661l-5.824,-0.529l-11.529,-0.793l-5.218,-4.495l-10.072,-2.38l-3.884,3.834l-1.334,1.322l-0.121,0l-1.82,0.398l-6.432,1.455l-5.097,-1.851l-2.791,2.247l-1.335,1.058l-7.766,2.115l-0.971,-1.19l-9.465,0.398l-2.306,-2.776l-1.213,-1.455l-3.398,-0.793l-1.942,0.131l-11.164,1.19l-2.063,-12.031l-0.971,-6.213l-1.335,-0.794l-4.49,1.455l-0.849,0.397l-6.432,-3.173l-1.092,-1.322l-2.67,-3.305l-7.888,-5.288l-1.578,4.363l-3.883,1.057l-6.553,7.404l-5.946,0.661l-9.344,4.231l1.214,9.122l-2.063,0.926l-0.121,1.586l2.306,3.966l-4.733,7.933l-1.456,-1.19l-4.126,0.661l-12.378,8.858l-2.063,1.586l-0.728,-1.322l-0.728,-1.586l-5.582,-3.438l-9.223,-9.254l-2.305,-2.248l-5.947,-2.908l3.641,-5.95l-0.365,-3.437l-5.34,-8.726l-1.092,-4.76l-6.916,-1.982l-10.316,0.397l-4.004,-1.718l-1.578,0.131l-1.577,0.263l-0.85,1.718l-9.101,-7.271l-6.674,-5.288l-8.616,-2.909l-3.156,0.398l-5.825,-3.57l-6.067,-0.794l-0.607,3.306l-9.586,5.42l-0.607,5.685l-7.16,-1.719l-8.495,2.248l-5.825,4.231l-0.365,2.247l-9.95,2.115l-7.281,3.173l-3.762,0.263l-13.349,-6.875l-4.49,0.793l-5.582,1.851l-4.248,5.421l-0.485,3.173l-0.365,2.38l-9.466,6.478l-4.611,-0.529l-2.184,1.851l-14.32,-4.892l-3.398,-1.19l-10.921,-0.131l-0.486,7.271l-0.12,1.983l-8.616,7.668l-11.893,0.398l-26.697,-9.916l-4.49,1.587l-5.34,-1.719l-2.669,-13.353l1.577,-1.586l-4.369,-9.519l-8.13,1.322l-6.553,-3.966l-5.704,0.529l-3.883,-1.587l-4.733,1.587l-3.519,-4.496l1.821,-6.081l-0.729,-3.437l-6.431,-3.57l-0.607,-6.346l-3.641,-7.271l-10.072,-10.313l-2.184,-4.892l-2.912,-1.851l-0,-0.131l-5.946,-0.529l-0,-3.966l1.82,-1.057l-9.102,-6.876l3.155,-5.817l1.093,-6.478l-4.248,-4.759l-0.365,-0.529l-1.335,1.454l-4.854,5.553l-7.766,5.949l-4.611,-2.38l-4.49,0.529l0.365,-2.379l-1.699,-2.116l-1.335,0.398l-4.126,-4.495l-4.005,-0.794l-3.761,-0.793l-4.733,1.322l-4.126,-6.61l-2.67,1.454l-3.397,-3.834l-7.646,-3.041l-1.092,-2.247l1.213,-4.76l-0.849,-3.701l-3.519,-2.513l-0,-2.511l-1.942,0.793l0.12,1.322l-6.31,1.983l-5.097,-2.512l-2.427,-3.702l-7.645,-1.983l-2.669,-9.651l-0.245,-1.19l-0.728,0.529l-1.092,0.925l-8.859,-2.379l-5.946,0.131l-3.033,-1.19l-3.398,-1.454l-5.219,-6.214l-5.096,5.553l-1.214,5.949l-1.456,-0.262l-0.485,0.793l-0.971,1.454l-4.005,0.132l-0.365,-0.262l-4.004,-3.173l-4.854,2.379l-1.821,-2.512l-1.699,0.263l-0.849,2.115l-5.946,4.363l-1.699,3.437l-2.427,4.76l-2.548,1.454l-0.85,4.76l-0,0.528l-13.956,7.8l-1.577,7.404l-5.946,1.19l-1.214,-1.851l-8.252,-4.23l-0.365,-0.132l-7.281,0.794l-0.728,-1.058l-3.519,0.793l-3.277,2.777l-4.611,4.098l-7.281,1.851l-0.728,1.586l-3.398,-0.528l-6.675,-8.197l-6.917,-0.398l-12.499,-5.288l-3.762,-5.817l-7.402,-1.322l-4.369,-3.835l-2.072,-5.818l-0.485,-1.454l-2.791,0.398l-4.248,2.777l-2.305,6.213l-8.495,6.082l-0.486,9.651l0,0.398l1.821,3.834l0,-0.001l-5.097,7.271l-10.679,-1.189l-0.607,-0.131l-0.24,0.528l-3.277,6.346l-1.82,8.594l-1.699,-2.909l-2.67,-1.19l-4.733,-0.793l-4.247,0.926l-1.578,-2.909l-0.12,-6.478l0.971,-2.115l3.519,-6.743l-3.519,-7.536l-5.704,-1.454l-1.456,1.454l-2.427,2.512l-4.368,-0.661l-3.762,2.776l-6.553,-0.131l1.213,-12.824l0.243,-1.454l-2.791,-3.966l0.607,-4.496l-2.185,-3.172l2.063,-1.323l-0.242,-2.115l-14.077,-6.61l-9.708,-13.485l-3.398,-2.116l-1.578,-0.262l-7.645,-1.586l-5.825,-3.703l-4.49,-5.949l0,-4.892l-3.519,-7.139l-7.402,-4.098l-2.066,-4.099l-1.456,1.587l-13.834,4.099l-4.612,-5.289l-10.315,-1.719l-4.732,-3.701l-0.243,-2.909l-3.034,-0.131l0.122,-2.248l-4.126,-3.438l0.849,-3.04l-1.699,-11.634l4.733,-6.346l0.364,-0.529l-12.864,0.131l-1.334,-2.776l-5.947,-2.644l0.001,0l0.001,0.01l-0,0l0,0.001l0,-0.001Zm-266.609,445.277l4.005,0.262l5.096,2.38l-2.548,7.668l1.82,2.512l12.742,6.875l3.641,12.824l6.795,5.685l1.456,-0.528l2.67,7.006l-4.611,7.933l-5.946,-1.983l-2.549,1.454l-10.436,-3.834l-1.699,1.322l-7.766,-3.041l-11.407,-1.19l-5.947,-3.701l-6.795,-0.132l-3.762,-1.719l4.368,-11.501l4.005,-3.306l12.742,-21.814l-0.607,-1.454l4.733,-1.719l-0,0.001l-0,0l-0,0Zm-37.376,44.819l0.121,5.024l-6.311,8.858l-1.092,13.882l-3.398,4.891l-9.95,3.041l-2.185,2.909l-7.766,2.776l-2.427,-1.851l-0.243,-2.512l5.704,-12.295l-1.821,-6.478l13.106,-8.99l2.306,0.397l6.917,-9.254l7.038,-0.398l0.001,0l-0,0Z"
    style="fill: none; fill-rule: nonzero; stroke: #000; stroke-width: 2.57px"
  />
  <path
    id="huecha"
    d="M299.788,1245.8c4.094,8.188 27.361,3.369 31.09,-4.091c8.348,-16.696 10.823,-14.411 27.818,-22.909c23.544,-11.771 10.73,-35.213 49.909,-48.272c66.083,-22.028 72.916,6.496 134.999,-24.546c41.521,-20.76 26.093,-79.318 42.546,-87.545c2.716,-1.358 25.329,-22.482 27.818,-23.727"
    style="
      fill: none;
      stroke: #00bfff;
      stroke-width: 5px;
      stroke-miterlimit: 1.5;
    "
  />
  <path
    id="queiles"
    d="M277.119,1112.62c2.183,-3.275 28.762,-21.781 37.037,-22.267c1.889,-0.112 12.08,4.95 26.836,-15.709c6.762,-9.468 5.674,-11.477 17.018,-13.746c2.663,-0.532 13.594,-2.719 26.182,-21.6c10.239,-15.359 -8.53,-37.797 -7.2,-48.436"
    style="
      fill: none;
      stroke: #00bfff;
      stroke-width: 5px;
      stroke-miterlimit: 1.5;
    "
  />
  <path
    id="ebro"
    d="M599.193,1018.92c5.842,11.683 10.849,7.634 16.619,19.176c9.566,19.13 60.217,13.309 71.591,58.806c9.933,39.734 46.151,-9.841 54.971,16.619c3.136,9.409 -8.253,44.497 20.455,40.909c1.103,-0.138 7.324,-8.482 21.732,-1.278c10.889,5.444 14.883,22.758 20.455,23.011c32.289,1.468 40.769,-5.534 51.136,25.568c5.226,15.679 10.876,7.744 42.187,8.949c3.469,0.133 -1.59,6.477 30.682,30.681c1.163,0.872 53.336,25.211 61.363,33.239c7.902,7.902 11.033,2.084 19.176,10.227c3.933,3.933 25.081,55.367 75.426,80.539c14.488,7.245 28.977,14.489 43.465,21.733c50.225,25.113 84.542,17.157 100.994,28.125c107.783,71.856 106.557,114.685 145.738,173.863c8.348,12.609 50.794,15.751 57.825,26.191c7.031,10.441 -26.426,18.47 -15.638,36.45c0.349,0.581 15.281,3.568 16.619,3.835c2.774,0.555 27.893,5.579 34.517,-7.67c2.272,-4.544 3.517,-1.811 24.29,5.114c26.184,8.728 24.918,-12.004 52.414,-8.949c22.667,2.518 45.388,30.159 65.199,31.96c5.858,0.532 83.354,6.208 101.726,-3.09c11.329,-5.734 -12.76,-30.694 -0.546,-49.014c3.147,-4.72 16.169,-1.171 24.463,10.054c30.639,41.468 40.592,-4.773 45.663,-14.2c0.538,-1.001 1.222,-11.343 10.922,-30.744c11.195,-22.389 6.447,-76.454 67.06,-61.301c17.662,4.416 20.051,17.797 61.363,28.125c1.207,0.302 17.17,-1.222 17.17,-1.222"
    style="
      fill: none;
      stroke: #00bfff;
      stroke-width: 11.67px;
      stroke-miterlimit: 1.5;
    "
  />
  <path
    id="gallego"
    d="M1358.17,128.241c0.844,0.361 7.166,3.071 9.115,6.97c0.553,1.106 6.655,0.977 8.043,3.754c7.756,15.512 29.6,21.1 30.296,21.448c3.229,1.614 26.096,1.344 26.81,3.485c2.66,7.981 7.216,4.513 10.992,12.065c3.643,7.286 3.437,7.365 4.021,15.549c0.049,0.683 4.18,13.077 4.558,14.21c4.458,13.374 1.789,14.468 0.536,21.984c-1.041,6.244 -4.329,7.6 -5.362,24.129c-0.089,1.423 -1.599,1.023 -4.826,17.158c-1.704,8.521 -1.425,8.594 1.341,16.891c0.901,2.703 0.533,7.786 -0.268,10.992l-0.737,2.648c-0.251,0.75 -5.235,4.82 -1.341,8.713c1.328,1.328 3.704,1.168 2.681,30.832c8.918,11.148 1.592,14.403 1.341,21.448c-0.715,19.998 5.033,21.772 1.675,26.81c-2.837,4.255 -2.777,4.117 -6.367,7.708c-2.656,2.656 1.989,7.383 -3.351,10.054c-7.278,3.638 -3.652,7.02 -6.368,8.378c-7.194,3.597 1.613,8.441 -4.356,14.41c-10.133,10.133 -10.67,9.555 -11.06,10.724c-0.154,0.464 0.372,0.525 -1.005,6.032c-0.866,3.463 -2.008,3.003 -3.016,8.043c-1.272,6.359 -5.995,3.798 -7.038,10.054c-0.273,1.639 0.538,8.466 -8.378,14.41c-1.795,1.197 -1.281,11.216 -3.351,17.427c-1.287,3.861 1.943,13.774 -6.032,17.761c-1.419,0.71 -5.769,-0.934 -9.719,3.017c-2.094,2.094 -8.671,-0.098 -9.383,-0.336c-4.211,-1.403 -4.067,-1.618 -8.379,-2.01c-2.943,-0.268 -6.801,-6.146 -7.707,2.01c-0.155,1.394 -5.852,-1.883 -8.379,5.698c-1.754,5.264 -5.08,5.643 -3.016,7.707c3.125,3.125 -3.147,8.437 -5.027,14.076c-1.679,5.037 -10.231,6.545 -12.064,8.378c-2.313,2.313 -6.022,-4.042 -10.054,4.021c-0.348,0.697 -1.009,0.004 -7.372,6.368c-2.746,2.745 -9.945,3.235 -12.065,-1.006c-2.422,-4.843 -20,-3.264 -20.778,-2.681c-8.736,6.553 -9.848,-5.508 -30.831,-2.011c-7.502,1.251 -7.4,1.18 -14.746,3.017c-1.981,0.495 -7.334,-8.752 -11.394,-4.692c-3.607,3.607 -4.19,1.256 -8.713,-1.006c-2.29,-1.145 -2.588,0.062 -4.692,-1.34c-5.813,-3.875 -6.746,4.444 -7.708,6.367c-2.54,5.081 -7.313,0.184 -11.059,2.681c-2.778,1.853 -2.527,3.291 0.67,4.357c0.367,0.122 2.298,3.208 0.671,4.021c-4.733,2.367 -14.584,-1.687 -9.719,8.043c3.228,6.456 -14.304,10.7 -16.086,2.681c-1.205,-5.42 -4.867,-3.987 -5.027,-4.021c-1.678,-0.36 -7.624,-1.634 -21.448,0.67c-1.688,0.282 -9.018,3.506 -9.048,3.687c-0.695,4.166 2.344,3.01 3.686,7.037l0.134,0.304c0.331,0.992 3.669,7.241 -1.373,8.922c-3.297,1.099 -0.321,6.703 2.746,8.236c1.847,0.923 2.974,7.778 1.715,10.295c-1.114,2.23 -0.486,5.367 -2.917,6.177c-3.629,1.21 1.219,7.532 -1.372,10.123c-1.571,1.571 -1.023,1.997 -2.746,3.432c-3.053,2.545 -0.779,7.682 -4.632,9.609c-3.683,1.841 0.331,8.426 -2.059,12.011c-2.717,4.075 1.125,7.213 1.201,9.265c0.017,0.474 1.193,2.039 1.193,2.039c2.26,4.52 -4.407,25.729 -1.676,29.826c2.346,3.518 2.346,17.871 2.346,19.437c11.03,4.412 7.91,12.528 6.367,21.783c-0.819,4.914 -9.446,7.91 0,11.059c0.319,0.106 4.398,2.405 -2.01,3.686c-1.388,0.278 -5.18,7.464 3.351,11.73c2.36,1.18 6.825,6.138 1.005,9.048c-3.704,1.853 -0.687,5.031 -4.692,6.032c-2.988,0.748 2.397,5.866 2.681,8.714c0.05,0.498 0.485,4.84 1.676,6.032c0.645,0.645 2.851,5.673 -4.357,4.644c2.835,7.288 5.821,8.302 2.681,11.442c-7.039,7.039 3.139,12.201 -1.675,13.405c-1.908,0.477 -0.571,3.786 -2.011,2.346c-0.205,-0.205 -1.508,-1.508 -3.016,-2.011l0.67,0.335c-1.056,5.281 -2.83,6.628 2.011,9.048c0.8,0.4 4.9,5.426 3.016,6.368c-4.667,2.333 -20.096,3.357 -7.373,9.718c6.629,3.315 0.935,5.656 1.676,13.07c0.722,7.224 -13.592,12.086 -2.011,13.74c7.597,1.086 3.537,11.941 1.341,13.405c-0.156,0.104 -3.77,5.614 -2.011,7.373c5.976,5.976 9.039,7.382 3.016,13.405c-0.121,0.121 -1.005,1.005 -1.676,1.341c-0.298,0.149 -3.366,5.186 -1.675,6.032c2.845,1.422 1.784,9.554 1.675,10.389c-0.043,0.332 -0.962,-0.333 -1.005,-0l0.115,2.092c-0.383,0.767 -11.839,9.527 -3.665,13.614c6.115,3.058 -0.972,8.376 -1.047,9.426c-0.374,5.229 1.47,7.121 -3.666,7.854c-4.854,7.282 -3.924,7.557 -4.712,16.233c-0.163,1.79 -6.424,6.143 2.618,15.185c2.469,2.469 14.971,0.428 8.901,12.567c-2.271,4.544 -3.597,3.601 -3.665,5.237c-0.368,8.829 2.614,9.952 -3.665,16.232c-3.048,3.048 3.503,7.678 3.665,9.949c0.357,5.001 -0.524,5.236 1.571,7.331c3.665,3.666 1.311,15.439 1.047,16.756c-0.814,4.072 4.464,1.246 4.713,5.237c0.587,9.4 0.473,10.497 -7.855,14.661c-2.22,1.11 -1.723,1.791 0.524,6.284c0.524,1.047 1.982,11.253 2.122,12.236c9.732,4.306 0.771,6.066 -0.027,7.662c-1.131,2.262 -3.041,4.502 -1.571,5.236c2.426,1.214 15.223,-2.295 5.25,7.19c-0.824,8.238 -4.455,5.63 -6.821,7.996c-4.277,4.276 0.756,6.574 -3.666,10.996l-1.046,0.591c-1.265,2.531 -2.524,2.458 -1.287,4.933c1.2,2.401 -2.028,5.906 -2.145,7.078c-0.499,4.992 -3.533,3.207 -5.791,7.721c-2.442,4.886 3.928,7.324 0.858,12.44c-2.334,3.891 1.241,2.933 2.145,4.29c0.448,0.672 0.3,0.695 0.884,4.339c-2.033,1.361 -5.472,2.721 -6.031,8.315c-0.416,4.159 4.296,1.575 4.504,3.646c0.355,3.559 -3.17,5.024 -3.218,6.22c-0.364,9.118 1.997,11.279 -1.93,16.515c-2.309,3.079 -0.011,4.301 -3.432,7.721c-7.235,7.236 -11.848,8.209 -9.866,14.156c1.356,4.068 -2.727,4.355 -3.217,7.292c-1.305,7.834 0.252,8.188 0.858,8.794c2.754,2.754 -1.341,10.242 -5.362,11.582c-0.166,0.055 -2.002,0.667 -2.145,0.429c-0.465,-0.775 -0.172,-1.223 -1.072,-1.072c-0.441,0.073 -4.396,5.886 -4.504,7.077c-1.011,11.121 2.852,11.109 3.646,15.872c1.942,11.652 -5.934,12.731 -8.579,18.522c-2.464,5.393 -5.759,13.275 -7.293,16.224c-2.17,4.172 -8.543,10.073 -9.804,12.597"
    style="
      fill: none;
      stroke: #00bfff;
      stroke-width: 5px;
      stroke-miterlimit: 1.5;
    "
  />
  <path
    id="cinca"
    d="M1718.81,234.573c0.58,2.61 -0.451,6.936 15.416,8.378c0.974,0.089 10.919,0.993 12.064,2.011c6.443,5.727 7.174,4.124 12.18,4.362c3.713,5.569 0.928,8.832 12.62,12.73c7.291,2.43 6.894,8.056 16.086,8.713c0.103,0.007 6.944,-1.018 10.724,4.021c2.773,3.699 26.468,5.684 29.155,11.059c1.879,3.758 3.865,-0.387 16.086,3.687c10.288,3.429 24.416,-7.567 30.497,16.756c2.341,9.364 11.788,17.033 -0.336,29.156c-9.241,9.241 -13.266,3.848 -21.447,14.075c-3.457,4.321 0.502,6.026 0.67,10.724c0.067,1.876 0.502,14.075 -4.022,23.124c-1.826,3.651 -14.416,3.348 -19.102,1.005c-5.704,-2.852 -11.218,1.253 -11.729,6.367c-0.916,9.155 -5.123,7.326 -8.043,16.086c-0.894,2.682 -0.18,5.787 -2.681,7.038c-2.145,1.072 1.049,7.459 1.34,8.043c1.394,2.786 2.212,1.877 4.357,4.021c3.37,3.37 -4.628,11.825 -0,18.767c0.512,0.768 6.032,12.289 0.67,19.437c-1.827,2.436 -1.7,2.396 -3.016,5.027c-0.261,0.522 -0.301,0.302 -0.67,0.671l-0.833,1.231c-0.102,0.911 -0.996,8.962 -2.145,11.26c-1.211,2.421 4.282,7.782 0.536,11.528c-2.324,2.324 -0.249,6.472 -0,6.971c2.27,4.539 -1.105,5.202 1.072,9.919c1.963,4.252 1.5,4.282 2.413,8.848c0.97,4.846 7.953,5.892 10.456,20.911c2.451,14.705 7.542,12.134 11.26,19.572c1.341,2.681 5.864,7.204 6.435,7.774l0.368,1.102c2.907,5.813 5.15,4.134 8.043,9.919c6.207,12.415 6.467,12.23 6.702,13.405c0.71,3.547 0.106,4.932 4.558,9.384c6.166,6.166 -0.919,10.552 5.094,19.571c5.422,8.133 6.519,6.879 8.847,8.043c5.577,2.788 -1.407,14.075 1.609,20.107c3.995,7.99 -5.881,19.584 1.34,24.397c2.73,1.82 2.695,1.708 5.362,3.486c6.52,4.347 2.823,17.355 1.073,18.23l0.268,0.269c0.034,0.76 0.37,8.145 1.608,9.383c3.61,3.61 4.181,11.905 0.537,15.55c-4.773,4.773 -1.36,14.726 0.268,16.354l0.898,0.679c5.165,5.164 -6.174,13.356 -6.392,16.619c-5.455,81.831 11.541,98.402 -10.227,120.169c-30.186,30.186 -26.307,32.899 -37.073,65.198c-3.116,9.348 -19.041,18.034 -0,37.074c15.879,15.88 -1.205,23.254 -1.279,24.289c-1.659,23.222 6.427,24.221 -3.835,44.744c-2.334,4.668 3.215,11.177 -7.67,16.619c-10.599,5.299 -9.595,22.379 -20.455,33.239c-1.035,1.035 -3.409,3.409 3.835,17.897c6.17,12.34 6.092,13.384 -7.67,40.909c-3.574,7.148 3.965,17.251 -1.278,43.465c-0.694,3.47 -1.752,8.76 5.159,43.922c13.686,10.043 9.483,12.67 12.738,28.947c0.385,1.926 7.698,-3.754 15.341,19.176c1.429,4.287 16.502,24.056 16.619,24.289c9.061,18.121 3.17,24.632 15.341,25.568c2.032,0.157 21.272,1.637 24.289,7.671c1.452,2.902 6.059,0.945 15.341,10.227c7.856,7.856 10.654,16.832 17.898,20.454l1.368,1.031c4.815,9.631 25.793,11.012 30.894,31.418c0.405,1.619 4.189,16.756 6.284,19.898c3.755,5.633 2.618,27.467 2.618,30.37"
    style="
      fill: none;
      stroke: #00bfff;
      stroke-width: 5px;
      stroke-miterlimit: 1.5;
    "
  />
  <path
    id="clamor-ii"
    d="M1686.3,1047.39c-1.411,5.643 -4.955,6.574 -7.418,13.963c-1.289,3.869 -6.482,12.745 -6.545,14.4c-0.519,13.497 2.155,14.017 -3.928,26.182c-6.283,12.567 -0.391,30.243 0.437,32.727c6.971,20.914 26.443,23.326 44.072,28.363c19.447,5.556 26.423,0.306 55.417,19.636c1.846,1.231 14.928,11.328 25.48,12.835"
    style="
      fill: none;
      stroke: #00bfff;
      stroke-width: 5px;
      stroke-miterlimit: 1.5;
    "
  />
  <path
    id="clamor-i"
    d="M1674.3,822.73c-3.334,3.334 -2.684,3.622 -4.8,7.855c-0.252,0.503 -1.745,3.49 3.491,6.109c4.111,2.055 2.998,2.98 3.498,7.496c8.525,6.867 5.158,8.942 10.029,18.685c5.713,11.426 -4.685,20.687 11.345,22.691c3.062,0.382 6.747,19.625 10.036,21.818c7.67,5.112 9.061,16.915 16.146,23.999c0.55,0.55 1.583,4.202 6.981,9.6c5.576,5.576 4.017,6.378 6.546,13.963c8.17,24.513 33.114,16.294 31.854,31.418c-1.037,12.447 9.207,8.031 12.218,20.073c0.492,1.969 2.324,2.048 -2.182,20.072c-4.731,18.926 0.9,20.714 -2.182,22.254c-7.095,3.548 -3.757,5.641 -4.363,13.527c-0.534,6.941 0.319,6.748 6.109,18.327c0.512,1.025 0.945,0.408 11.345,8.728c2.431,1.945 3.326,5.136 6.928,8.738"
    style="
      fill: none;
      stroke: #00bfff;
      stroke-width: 5px;
      stroke-miterlimit: 1.5;
    "
  />
  <path
    id="vero"
    d="M1720.86,564.887c-1.404,7.024 -5.918,6.709 -2.727,13.091c6.289,12.579 -0.667,13.694 2.727,27.272c3.683,14.73 2.478,24.222 8.728,28.909c23.156,17.367 10.549,27.365 16.908,30.545c1.895,0.947 7.802,8.127 2.728,9.818c-7.604,2.535 12.796,15.441 0.545,33.818c-0.355,0.533 -0.28,0.56 -9.272,18.545c-1.537,3.073 -8.228,3.411 -11.455,13.091c-1.091,3.272 -3.477,8.045 -3.818,8.727c-0.527,1.054 0.545,0.977 0.545,14.727c0,0.854 6.231,10.415 2.728,26.181c-6.729,30.28 -21.043,68.44 4.363,76.908c47.801,15.934 42.686,24.141 54,35.454c6.387,6.387 6.077,6.935 14.727,9.818c0.302,0.101 1.095,-0.534 5.644,10.838c0.98,0.37 2.102,0.247 3.083,0.617c4.04,1.523 4.806,15.699 9.272,19.636c3.195,2.816 4.009,4.23 7.896,4.233"
    style="
      fill: none;
      stroke: #00bfff;
      stroke-width: 5px;
      stroke-miterlimit: 1.5;
    "
  />
  <path
    id="calcon"
    d="M1498.31,665.3c-3.737,14.945 -3.006,15.92 -2.182,17.018c4.152,5.537 7.172,2.998 13.091,14.836c0.073,0.148 1.018,6.691 1.745,7.418c9.868,9.869 6.921,23.834 21.818,28.8c3.782,1.261 11.486,2.901 15.272,10.472c0.781,1.562 5.555,3.81 7.418,5.673c1.326,1.325 1.741,0.432 3.055,1.746c4.444,4.443 0.902,7.432 7.854,10.909c8.322,4.16 9.415,2.22 16.139,8.613c1.25,8.402 -0.468,9.694 3.934,11.895c6.694,3.348 13.902,13.842 13.963,13.964"
    style="
      fill: none;
      stroke: #00bfff;
      stroke-width: 5px;
      stroke-miterlimit: 1.5;
    "
  />
  <path
    id="formiga"
    d="M1524.05,670.1c-4.965,34.755 -1.759,38.175 12.654,45.381c7.787,3.894 6.474,5.856 18.327,11.782c8.682,4.341 14.332,0.301 20.073,11.782c0.886,1.772 -1.117,2.322 6.109,23.999c1.201,3.604 1.599,3.878 1.302,7.741"
    style="
      fill: none;
      stroke: #00bfff;
      stroke-width: 5px;
      stroke-miterlimit: 1.5;
    "
  />
  <path
    id="alcanadre"
    d="M1857.54,1339.75c-0.98,-0.327 -13.14,-3.259 -14.102,-3.58c-14.851,-4.95 -8.603,-18.276 -19.437,-20.442c-4.415,-0.883 -2.174,-6.196 -9.383,-13.405c-1.573,-1.572 -4.826,2.178 -8.379,-6.703c-1.656,-0.946 -1.596,-0.827 -3.016,-2.01c-7.238,-6.033 -14.538,-0.996 -19.772,-9.719c-2.175,-3.626 -7.725,2.312 -10.054,-2.346c-1.005,-2.011 -4.582,-5.588 -5.027,-6.032c-2.542,-2.543 -4.065,-0.742 -6.702,-1.005c-1.525,-0.153 -7.6,-8.322 -11.394,-7.373c-1.465,0.366 -3.751,7.063 -12.065,-4.022c-1.087,-0.043 -12.481,-0.499 -13.405,-2.346c-3.704,-7.409 -5.948,-3.696 -14.41,-4.021c-4.22,-0.162 -3.638,-11.969 -12.399,-9.048c-4.382,1.46 -10.56,-3.11 -12.735,-3.352c-12.067,-1.34 -15,4.634 -22.453,-0.335c-5.212,-3.474 -6.53,4.065 -34.853,-3.016c-8.681,-2.17 -11.653,4.098 -16.421,-0.67c-2.278,-2.278 -9.955,0.471 -10.054,0.67c-2.599,5.198 -4.124,2.864 -9.805,3.355c-9.322,11.773 -14.209,-3.915 -21.362,-0.339c-3.109,1.555 -3.193,0.904 -6.702,0.671c-2.639,-2.263 -2.864,-2.711 -3.016,-3.017c-0.284,-0.567 -1.003,-3.356 -1.003,-6.656c-0,-2.772 8.68,-8.567 8.898,-14.251c1.216,-31.6 0.46,-34.621 -0.268,-37.534c-1.087,-4.348 -8.341,-12.78 -4.826,-23.325c2.053,-6.158 -0.625,-17.247 1.073,-20.643c2.275,-4.55 -1.75,-9.531 -1.877,-12.065c-0.477,-9.544 1.513,-9.288 2.145,-18.766c0.141,-2.115 13.972,-4.377 7.238,-14.478c-1.541,-2.311 -3.619,-10.232 3.486,-12.6c1.876,-0.626 13.118,-10.678 13.137,-10.992c0.229,-3.906 -1.228,-4.748 1.608,-6.167c0.454,-0.227 4.038,-9.023 3.485,-12.064c-0.198,-1.092 -0.845,-0.533 -9.115,-10.456c0,-3.588 2.389,-13.469 -0.385,-14.856c-1.672,-0.836 -1.378,-3.189 -1.341,-3.485c0.153,-1.222 6.659,-3.349 5.094,-8.043c-1.326,-3.978 3.836,-10.679 -4.021,-20.108c-8.297,-9.955 11.23,-10.606 7.774,-27.882c-0.33,-1.651 -2.025,-1.991 -2.949,-9.383c-0.735,-5.884 -0.112,-6.417 -4.825,-10.188c-6.666,-5.333 0.785,-10.935 2.412,-15.818c4.064,-12.19 13.36,-11.864 8.58,-19.035c-5.354,-8.03 -4.049,-8.873 -0.269,-17.695c2.88,-6.72 -5.168,-22.196 1.341,-27.078c4.351,-3.263 2.332,-20.295 4.558,-22.52c3.429,-3.429 -2.849,-16.97 1.072,-20.107c3.461,-2.769 3.841,-5.537 4.29,-6.435l0.603,-0.653c3.713,-7.427 -2.43,-12.819 -4.189,-16.337c-5.811,-11.623 6.511,-6.739 9.216,-12.149c8.476,-16.952 0.695,-22.755 4.189,-29.742c2.219,-4.438 -6.014,-8.76 2.513,-10.891c9.528,-2.382 -1.154,-11.677 -1.257,-14.243c-0.549,-13.74 1.257,-13.521 1.257,-27.229c0,-20.596 10.318,-24.451 2.514,-32.255c-0.419,-0.419 -2.326,-4.233 -2.514,-4.608c-1.938,-3.876 -1.688,-0.546 -1.688,-0.546c-2.333,-2.334 -15.503,-6.764 -17.673,-15.442c-0.553,-2.214 -11.731,-8.512 -11.839,-10.124c-0.326,-4.893 5.515,-6.864 2.574,-13.727c-3.932,-9.173 3.687,-13.035 5.834,-18.187c2.651,-6.364 0.737,-11.769 3.603,-17.502c0.815,-1.63 1.291,-1.298 1.887,-3.088l0.856,-0.66c0.945,-2.833 2.184,-2.26 2.681,-3.753c1.655,-4.963 0.086,-5.716 3.754,-9.384c7.349,-7.35 4.199,-20.017 9.383,-25.201c2.769,-2.769 0.167,-6.132 7.507,-8.579c1.243,-0.414 4.74,-5.243 5.362,-8.043c1.136,-5.112 -1.771,-10.119 1.072,-13.673c0.322,-0.403 0.13,-0.39 0.268,-0.804"
    style="
      fill: none;
      stroke: #00bfff;
      stroke-width: 5px;
      stroke-miterlimit: 1.5;
    "
  />
  <path
    id="guatizalema"
    d="M1584.58,1041.67c-4.523,-4.523 -2.613,-10.404 -16.967,-19.974c-20.021,-13.346 -11.9,-23.334 -18.013,-26.391c-2.416,-1.208 -5.743,-7.639 -9.216,-8.796c-3.127,-1.043 -4.897,1.618 -5.446,-1.676c-1.25,-7.499 -2.191,-7.218 -15.918,-20.945c-0.839,-0.839 -9.216,-9.216 -10.054,-10.892c-3.778,-7.556 -30.721,-17.179 -38.12,-39.377c-4.686,-14.056 8.401,-10.124 13.824,-26.391c2.589,-7.767 -3.665,-16.114 -3.771,-18.85c-0.361,-9.397 0.481,-9.421 -2.094,-18.432c-0.967,-3.384 -0,-3.464 -0,-43.985c-0,-9.496 5.191,-10.619 6.702,-19.689c1.489,-8.932 5.085,-18.316 -4.189,-36.863c-4.469,-8.939 -14.859,-18.48 -8.378,-44.404c4.044,-16.175 1.676,-16.24 1.676,-33.093l0.419,-0c0.336,-4.715 -0.872,-18.689 12.567,-27.648c1.21,-0.807 8.415,-5.61 8.797,-15.918c0.558,-15.065 -2.176,-16.257 3.77,-22.202c3.049,-3.05 4.579,-12.408 6.702,-13.824c2.585,-1.724 3.906,-3.216 12.149,5.027"
    style="
      fill: none;
      stroke: #00bfff;
      stroke-width: 5px;
      stroke-miterlimit: 1.5;
    "
  />
  <path
    id="flumen"
    d="M1460.16,573.846c-4.35,2.175 -1.439,5.277 -4.29,6.703c-2.399,1.2 -0.849,9.54 -7.507,12.869c-2.32,1.16 -3.222,-3.367 -5.362,-3.486c-10.091,-0.56 -13.401,6.173 -15.013,2.949c-0.832,-1.663 -7.885,-1.369 -8.579,-1.34c-2.467,0.103 -11.608,6.215 -12.333,9.115c-4.789,19.157 -15.162,17.188 -18.499,23.861c-5.571,11.143 -2.364,15.184 -5.094,20.644c-2.431,4.863 2.77,6.525 -0.536,13.136c-2.67,5.341 7.017,4.489 3.754,9.384c-3.515,5.272 3.899,5.461 1.876,11.528c-1.114,3.345 -2.505,14.922 -1.876,15.55c0.395,0.395 5.917,3.161 3.217,11.26c-1.279,3.836 -2.34,3.571 -2.681,3.485c-0.857,-0.214 -0.363,17.064 6.166,23.593c0.22,0.22 1.364,3.24 7.775,9.652c0.804,0.804 1.505,2.205 1.609,2.413c0.559,1.118 20.973,14.683 11.26,24.397c-0.398,0.397 -9.979,4.884 -11.529,6.434c-4.773,4.773 -7.482,1.036 -11.26,6.702c-5.161,7.742 -6.378,12.003 -6.702,13.137l0.771,0.457c-6.857,3.429 -1.105,17.476 -4.356,19.102c-1.137,0.568 2.085,35.244 -5.027,45.912c-2.641,3.962 -0.973,4.81 -7.373,14.41c-0.39,0.586 -3.854,5.781 -5.697,6.703c-0.385,0.192 -0.297,0.258 -3.351,6.367c-1.647,3.294 -16.733,2.728 -12.735,10.724c2.12,4.24 0.77,4.945 -3.016,14.411c-0.822,0.082 -9.645,0.964 -8.378,6.032c0.331,1.325 4.647,-0.985 4.021,4.021c-0.16,1.286 -1.581,0.118 -1.675,1.341c-0.722,9.386 7.884,3.714 8.043,7.372c0.034,0.785 0.349,8.029 -1.341,9.719c-1.279,1.279 1.743,8.177 -0.67,9.383c-0.212,0.107 -2.895,5.591 -1.341,6.368c3.555,1.777 2.397,8.009 0.335,9.383c-3.031,2.021 1.991,3.058 0.336,6.368c-3.401,6.802 -3.576,8.973 3.686,11.394c3.867,1.289 6.424,-5.575 6.702,-1.676c0.409,5.717 0.708,6.502 6.368,7.373c4.779,0.735 4.046,-4.237 8.713,-2.681c5.702,1.901 2.315,8.472 5.697,8.713c3.999,0.286 15.211,-5.199 14.41,2.011c-0.118,1.066 -1.749,1.452 0.336,3.016c3.575,2.682 6.264,-1.984 7.707,2.346c0.623,1.867 9.738,5.855 2.011,9.718l1.005,0.671c-1.552,3.105 4.606,9.647 2.011,10.389c-3.503,1.001 -5.562,1.475 -3.016,4.021c6.535,6.535 10.856,1.298 11.059,5.362c0.342,6.841 -0.447,7.987 5.697,11.059c0.845,0.422 -1.097,1.919 6.703,9.719c12.089,12.089 18.465,9.45 21.448,15.415c8.847,17.695 20.986,11.625 22.788,10.724c4.247,-2.123 5.302,-2.465 7.373,1.676c0.565,1.13 13.983,8.897 10.389,16.086c-4.245,8.489 1.507,7.54 10.724,16.756c11.857,11.857 21.26,11.503 23.458,18.097c1.198,3.594 -7.38,9.714 4.692,17.761c4.65,3.1 1.691,9.017 1.34,9.719c-3.09,6.18 3.142,4.21 9.049,13.07c2.606,3.909 2.224,3.991 3.686,8.378c0.767,2.3 -0.664,4.695 3.351,6.702c5.235,2.617 -6.407,11.32 0.671,12.735c1.091,0.218 3.789,-0.723 3.351,2.346c-1.182,8.276 7.588,1.531 8.713,6.032c0.839,3.358 0.004,3.371 0.67,6.703c0.149,0.744 2.442,1.89 2.681,2.01c1.57,0.785 -0.089,12.354 3.019,15.462"
    style="
      fill: none;
      stroke: #00bfff;
      stroke-width: 5px;
      stroke-miterlimit: 1.5;
    "
  />
  <path
    id="isuela"
    d="M1305.85,588.8c6.965,13.928 34.552,0.387 38.958,18.012c0.507,2.029 2.454,9.815 -2.932,25.973c-0.412,1.236 -5.424,4.919 -7.959,17.593c-0.609,3.044 -7.442,19.148 -1.676,36.445c5.18,15.539 -0.957,19.799 -2.094,36.864c-1.622,24.325 -0.742,27.067 15.499,35.188c2.673,1.336 3.301,11.075 11.311,15.08c16.696,8.348 11.306,16.749 15.499,25.135c1.799,3.597 1.446,15.728 -2.513,19.688c-0.735,0.734 -0.567,0.861 -7.541,21.783c-2.743,8.23 -5.619,12.639 0.419,24.715c1.401,2.803 1.031,13.233 0.054,17.14"
    style="
      fill: none;
      stroke: #00bfff;
      stroke-width: 5px;
      stroke-miterlimit: 1.5;
    "
  />
  <path
    id="botella"
    d="M1457.67,745.178c1.159,8.109 7.269,13.118 0.559,19.828c-0.845,0.844 -3.48,8.4 -1.955,11.45c0.515,1.029 5.713,3.375 -2.234,19.269c-6.459,12.918 -2.593,28.406 3.072,34.071c0.377,0.377 -0.085,0.632 3.63,5.586c5.898,7.864 -8.349,16.77 -1.117,20.386c2.032,1.016 1.635,1.666 3.91,2.234c2.291,0.573 6.386,6.621 1.396,10.613c-1.058,0.846 -6.393,5.115 -2.513,16.756c2.561,7.682 4.245,7.037 5.585,15.08c0.055,0.328 0.17,0.231 1.397,3.91c0.217,0.651 0.752,3.069 0.462,3.648"
    style="
      fill: none;
      stroke: #00bfff;
      stroke-width: 5px;
      stroke-miterlimit: 1.5;
    "
  />
  <path
    id="isuala"
    d="M1604.83,793.323c1.644,6.573 5.255,4.122 11.86,6.323c5.245,1.748 5.555,-0.359 10.822,1.397c6.194,2.064 7.927,3.89 14.312,0.698c2.79,-1.395 15.163,-3.276 12.218,-20.945c-1.405,-8.431 -5.093,-6.964 -5.236,-10.822c-0.03,-0.802 1.134,-17.63 -2.444,-24.785c-3.438,-6.877 2.071,-12.998 2.095,-13.615c0.591,-15.369 -2.518,-18.738 0.349,-23.039c1.789,-2.683 -0.34,-5.962 2.793,-15.36c8.776,-26.33 12.622,-25.115 16.058,-45.73c2.736,-16.415 10.997,-20.944 3.84,-35.258c-0.029,-0.058 -2.893,-12.517 -4.538,-13.614c-2.31,-1.54 -8.986,-21.34 -0,-25.833c2.094,-1.047 5.235,-7.329 5.585,-8.029c2.834,-5.669 1.578,-13.174 -0.698,-14.312c-2.327,-1.164 -3.637,-3.783 -3.84,-4.189"
    style="
      fill: none;
      stroke: #00bfff;
      stroke-width: 5px;
      stroke-miterlimit: 1.5;
    "
  />
  <path
    id="mascun"
    d="M1629.96,580.42c3.973,15.892 -0.989,19.335 6.982,21.993c14.004,4.668 7.651,20.959 4.887,22.341c-0.755,0.378 -5.016,11.339 -5.585,13.614c-4.775,19.101 -11.323,19.389 -11.869,27.578c-0.352,5.275 -0.11,6.134 -2.475,10.864"
    style="
      fill: none;
      stroke: #00bfff;
      stroke-width: 5px;
      stroke-miterlimit: 1.5;
    "
  />
  <path
    id="aragon"
    d="M1310.25,118.25c1.679,16.791 -11.905,4.094 -18.097,9.048c-8.493,6.794 -12.239,24.042 -6.703,26.81c1.775,0.888 1.995,4.618 4.692,5.697c1.863,0.745 1.867,0.431 3.687,1.341c5.556,2.778 -0.558,12.484 -0.671,15.415c-0.592,15.401 -0.12,15.658 -7.037,29.491c-7.9,15.8 -1.174,37.705 -7.373,56.301c-0.507,1.521 -3.254,12.973 -11.394,21.113c-6.009,6.009 3.732,27.68 2.681,53.955c-0.342,8.542 2.831,17.461 -0.671,24.464c-2.032,4.065 -1.492,4.142 -2.345,6.703c-4.137,12.41 -31.264,15.973 -32.508,16.086c-6.429,0.584 -7.599,-0.216 -10.388,5.362c-0.142,0.283 -0.447,0.447 -0.671,0.67l-0.165,0.492c-1.107,1.108 -8.244,1.885 -10.295,1.202c-2.033,-0.678 -9.174,-5.464 -19.904,-1.888c-7.037,2.346 -13.8,-0.019 -18.187,0.858c-7.847,1.569 -7.628,-2.059 -18.017,-2.059c-11.657,0 -19.199,-3.355 -26.252,0.172c-6.885,3.442 -17.433,-2.563 -25.909,3.088c-4.644,3.096 -18.077,5.793 -23.164,2.402c-5.62,-3.746 -5.489,-3.808 -10.81,-8.064c-7.259,-5.808 -11.44,-3.717 -12.354,-3.26c-3.606,1.803 -3.986,-1.415 -8.064,-2.231c-2.538,-0.507 -2.51,-0.331 -6.177,-0.515l-0.679,0.21c-1.979,-0.396 -1.747,-0.74 -3.485,-1.609c-3.549,-1.774 -3.599,-1.226 -7.539,-1.593c-2.193,0.653 -3.198,2.018 -3.454,-0.283c-0.721,-6.494 -5.618,-1.324 -7.774,-4.558c-1.005,-1.507 -0.336,-6.178 -3.486,-6.703c-5.183,-0.863 -3.242,-4.374 -5.63,-4.557c-4.085,-0.315 -4.905,-0.051 -5.898,-4.022c-1.731,-6.925 -9.379,0.541 -14.746,-4.826c-6.081,-6.081 -12.897,0.157 -14.745,-0.536c-3.46,-1.297 -2.466,-8.955 -13.941,-3.217c-5.377,2.688 -10.293,-7.833 -14.478,0.536c-1.194,2.39 -12.092,5.066 -15.818,1.341c-1.197,-1.198 -4.411,1.096 -6.166,-2.413c-0.156,-0.314 -0.203,-0.236 -5.094,-2.681c-7.277,-3.639 -6.947,5.76 -14.209,6.97c-3.372,0.562 -3.221,0.806 -6.434,1.877c-1.557,0.519 -18.22,0.629 -22.521,-0.804c-1.296,-0.432 -2.688,-0.014 -4.557,-3.754c-0.595,-1.188 -4.316,-4.315 -6.167,-6.166c-3.211,-3.211 -12.318,6.695 -13.941,7.507c-1.186,0.593 -4.005,12.625 -14.209,-2.681c-5.819,-8.728 -18.986,0.706 -20.376,3.485c-0.161,0.322 -5.16,5.296 -8.847,1.609c-1.36,-1.36 -1.649,-0.844 -2.949,-2.145c-1.839,-1.839 -1.344,-2.148 -3.217,-4.022c-2.2,-2.199 -2.597,-1.523 -4.826,-3.753c-3.309,-3.309 -2.447,-6.267 -9.384,-8.579"
    style="
      fill: none;
      stroke: #00bfff;
      stroke-width: 5px;
      stroke-miterlimit: 1.5;
    "
  />
  <path
    id="veral"
    d="M1082.95,29.827c-0.539,4.851 0.91,6.447 -2.444,6.633c-7.372,0.409 -8.097,-0.979 -13.265,4.189c-2.171,2.171 0.309,5.625 -4.189,10.123c-8.212,8.212 -1.433,11.75 -7.331,20.596c-0.22,0.331 -2.269,3.404 -3.142,3.84c-1.795,0.898 -3.327,7.025 -3.49,7.68c-1.708,6.831 0.048,7.234 -3.142,13.615c-5.07,10.139 -5.863,10.407 -3.142,21.294c2.078,8.312 -5.405,22.004 2.444,37.701c5.296,10.592 -1.923,27.921 3.84,39.447c8.832,17.664 16.68,37.626 22.69,43.635c2.166,2.166 14.552,31.289 3.84,52.712c-1.872,3.745 -0.574,4.177 -3.84,9.077c-0.76,1.14 -4.772,3.958 -6.283,6.981c-0.073,0.146 -0.699,1.397 -1.048,1.746l-1.24,0.778c-15.073,15.072 -16.78,13.126 -17.804,14.661c-4.177,6.266 -5.063,5.56 -12.567,5.935c-1.823,0.091 -0.239,2.951 -6.283,6.981c-5.687,3.791 -6.127,4.093 -10.124,2.095c-5.159,-2.58 -35.161,-9.4 -41.896,10.806"
    style="
      fill: none;
      stroke: #00bfff;
      stroke-width: 5px;
      stroke-miterlimit: 1.5;
    "
  />
  <path
    id="subordan"
    d="M1193.83,122.569c0.692,-4.844 1.518,-4.972 6.545,-5.236c6.637,-0.35 8.251,2.261 10.909,-3.055c2.798,-5.597 -6.207,-7.861 -6.545,-10.909c-0.038,-0.34 1.255,-8.536 -6.109,-12.218c-2.328,-1.163 -4.655,-2.327 -6.982,-3.491c-1.739,-0.869 -26.129,-18.635 -41.454,-13.527c-0.654,0.218 -3.63,3.194 -3.927,3.491c-8.878,8.878 1.151,36.813 -9.6,47.563c-5.97,5.971 -4.978,6.724 -10.909,12.654c-0.085,0.085 -3.501,13.538 -5.673,15.709c-2.858,2.859 1.484,4.45 -3.927,15.273c-4.634,9.269 0.747,9.863 0,16.581c-1.975,17.775 -10.253,20.293 -3.927,39.272c1.266,3.797 4.095,2.418 6.982,13.964c0.417,1.668 3.768,7.776 4.363,11.345c1.965,11.787 -3.385,18.538 1.309,27.927c0.634,1.267 0.374,1.162 0.873,16.145c1.556,3.112 2.472,2.615 3.055,6.109c0.173,1.038 -0.437,-0.873 -0.437,-0.873c3.044,6.087 2.761,18.038 -0.436,19.636c-4.301,2.151 0.782,6.027 -18.763,35.345c-6.694,10.041 -12.389,9.77 -20.073,17.455c-1.201,1.2 -1.457,0.584 -2.618,1.745c-6.382,6.382 -2.923,13.486 -4.926,21.499"
    style="
      fill: none;
      stroke: #00bfff;
      stroke-width: 5px;
      stroke-miterlimit: 1.5;
    "
  />
  <path
    id="osa"
    d="M1126.19,259.585c9.566,-1.367 42.222,0.75 46.254,-11.345c3.445,-10.336 -8.475,-17.006 4.8,-33.6c11.899,-14.873 2.855,-18.999 8.291,-24.436c11.353,-11.353 18.351,-8.435 17.018,-24.436c-0.176,-2.112 -2.221,-3.769 3.491,-5.672c1.359,-0.454 -0.005,-1.448 10.036,-14.837"
    style="
      fill: none;
      stroke: #00bfff;
      stroke-width: 5px;
      stroke-miterlimit: 1.5;
    "
  />
  <path
    id="estarrun"
    d="M1174.9,391.37c-3.173,-15.864 -6.457,-26.51 -0.272,-35.787c8.357,-12.534 -0.692,-32.997 8.727,-47.126c15.918,-23.877 15.24,-33.131 20.945,-38.836c2.615,-2.614 0.198,-32.924 15.709,-48.435c2.182,-2.182 5.258,-6.797 5.673,-7.419c0.233,-0.349 0.429,-0.1 3.491,-3.927c4.386,-5.482 -0.871,-8.293 7.418,-16.581c0.124,-0.125 1.819,-11.09 11.781,-6.109c0.047,0.023 0.527,0.699 0.873,0.872"
    style="
      fill: none;
      stroke: #00bfff;
      stroke-width: 5px;
      stroke-miterlimit: 1.5;
    "
  />
  <path
    id="lubierre"
    d="M1193.09,390.512c0.487,-1.947 -2.717,-8.814 3.795,-21.838c2.305,-4.609 0.595,-5.97 5.237,-8.291c7.378,-3.689 8.534,-10.624 8.727,-11.781c0.148,-0.891 -0.569,-9.335 3.054,-16.582c5.676,-11.352 1.556,-19.909 16.145,-25.745c5.182,-2.073 7.872,-7.452 8.291,-8.291c6.467,-12.933 0.309,-12.908 -6.109,-25.745c-4.794,-9.588 1.292,-10.153 -0.436,-22.254c-0.849,-5.939 4.681,-4.998 6.982,-9.6c0.872,-1.745 1.645,-5.61 1.745,-6.109"
    style="
      fill: none;
      stroke: #00bfff;
      stroke-width: 5px;
      stroke-miterlimit: 1.5;
    "
  />
  <path
    id="canal-roya"
    d="M1341.85,160.32c0.139,-2.504 -0.492,-2.797 1.287,-4.576c1.84,-1.84 1.999,-1.571 4.146,-3.003c2.306,-1.537 0.619,-4.91 0.429,-5.29c-1.539,-3.078 -6.846,-10.715 -11.153,-12.869c-1.789,-0.895 -1.902,-0.616 -2.573,-1.287c-4.223,-4.222 -26.206,10.946 -27.597,13.727c-2.146,4.292 -4.79,4.291 -6.148,9.723c-0.487,1.949 -5.308,2.746 -6.411,4.401"
    style="
      fill: none;
      stroke: #00bfff;
      stroke-width: 5px;
      stroke-miterlimit: 1.5;
    "
  />
  <path
    id="izas"
    d="M1359.86,171.472c-2.946,2.946 0.242,7.397 -6.005,7.007c-3.979,-0.249 -8.927,-5.74 -17.588,-3.575c-3.582,0.896 -10.905,3.198 -24.736,-3.718c-0.375,-0.187 -0.332,-0.703 -3.575,-2.144c-5.181,-2.303 -6.432,-1.638 -11.96,-1.963"
    style="
      fill: none;
      stroke: #00bfff;
      stroke-width: 5px;
      stroke-miterlimit: 1.5;
    "
  />
  <path
    id="rioseta"
    d="M1289.01,158.956c-4.265,-0.853 -4.716,1.938 -11.21,5.834c-3.953,2.371 -4.099,0.82 -4.233,0.686"
    style="
      fill: none;
      stroke: #00bfff;
      stroke-width: 5px;
      stroke-miterlimit: 1.5;
    "
  />
  <path
    id="majones"
    d="M1019.6,167.796c10.737,5.369 3.981,13.259 0.698,29.672c-4.072,20.359 4.667,20.559 1.746,29.323c-1.393,4.177 -6.491,9.36 -1.746,18.851c2.539,5.077 -2.486,27.62 -11.171,36.305c-14.662,14.662 -4.845,25.441 -13.265,33.861c-1.662,1.662 -1.177,1.875 -2.792,3.491c-3.724,3.724 -5.444,16.375 -9.167,20.098"
    style="
      fill: none;
      stroke: #00bfff;
      stroke-width: 5px;
      stroke-miterlimit: 1.5;
    "
  />
  <path
    id="esca"
    d="M882.111,354.741c6.981,-6.981 -0.068,-21.006 2.614,-25.028c4.599,-6.899 7.621,-2.482 11.17,-6.032c2.214,-2.213 2.815,-1.607 4.245,-4.468c2.533,-5.066 -2.172,-11.009 2.011,-15.192c5.714,-5.714 5.72,-6.247 4.915,-14.299c-0.425,-4.246 -1.115,-4.25 0.223,-8.266c1.559,-4.674 -2.781,-9.345 0.671,-14.522c0.974,-1.461 4.155,-12.794 0.67,-13.182c-2.592,-0.288 -2.543,-0.28 -4.675,-1.701c-0.157,-0.786 -0.152,-9.34 -1.134,-13.267c-0.659,-2.636 -0.492,-8.669 0.447,-9.607"
    style="
      fill: none;
      stroke: #00bfff;
      stroke-width: 5px;
      stroke-miterlimit: 1.5;
    "
  />
  <path
    id="gas"
    d="M1225.93,387.031c9.581,0.505 10.159,1.918 19.518,3.79c12.177,2.435 13.598,-4.43 27.927,-1.564c7.167,1.433 13.376,-4.637 22.342,1.34c13.846,9.231 28.222,3.647 32.618,8.043"
    style="
      fill: none;
      stroke: #00bfff;
      stroke-width: 5px;
      stroke-miterlimit: 1.5;
    "
  />
</svg>
